<svg width="127" height="22" viewBox="0 0 127 22" fill="none" xmlns="http://www.w3.org/2000/svg"><mask id="mask0_310_7828" style="mask-type: luminance;" maskUnits="userSpaceOnUse" x="1" y="3" width="126" height="16"><path d="M127 3.25673H1.00781V18.7433H127V3.25673Z" fill="white"></path></mask><g mask="url(#mask0_310_7828)"><path d="M74.811 14.2275V18.7503H69.5721V6.52647H84.6075V9.72214H74.811V11.0318H84.6075V14.2275H74.811Z" fill="white"></path><path d="M100.864 15.0306V18.7501H86.5273V6.52628H91.7665V15.0306H100.864Z" fill="white"></path><path d="M107.46 6.52647V18.7503H102.221V6.52647H107.46Z" fill="white"></path><path d="M114.693 15.5023V18.7503H109.455V6.52647H120.562C122.947 6.52647 124.619 6.84081 125.573 7.46946C126.528 8.09811 127.005 9.23901 127.005 10.8921V11.1366C127.005 12.685 126.516 13.8026 125.538 14.4895C124.571 15.1646 122.913 15.5023 120.562 15.5023H114.693ZM119.827 9.72214H114.693V12.3066H119.827C120.608 12.3066 121.126 12.2251 121.382 12.0621C121.638 11.8875 121.766 11.5615 121.766 11.0842V10.9445C121.766 10.4672 121.638 10.1471 121.382 9.98408C121.126 9.80945 120.608 9.72214 119.827 9.72214Z" fill="white"></path><path d="M11.034 18.9245H9.28779C6.23765 18.9245 4.09556 18.4995 2.86154 17.6497C1.62751 16.7998 1.0105 15.2457 1.0105 12.9872V12.2886C1.0105 10.0301 1.62751 8.47596 2.86154 7.6261C4.09556 6.77626 6.23765 6.35133 9.28779 6.35133H11.034C13.8514 6.35133 15.8828 6.7064 17.1285 7.41655C18.3741 8.1267 19.0901 9.38401 19.2764 11.1885H13.9328C13.7582 10.618 13.438 10.2455 12.9724 10.0709C12.5067 9.89625 11.5929 9.80894 10.2307 9.80894H10.0911C9.26449 9.80894 8.60674 9.8555 8.11779 9.94864C7.62884 10.0301 7.25047 10.1873 6.98272 10.4201C6.7266 10.6413 6.55779 10.9033 6.4763 11.2059C6.3948 11.5086 6.35406 11.9219 6.35406 12.4458V12.8474C6.35406 13.5459 6.43555 14.0698 6.59854 14.4191C6.76152 14.7567 7.11077 15.0186 7.64629 15.2049C8.19346 15.3795 9.00838 15.4669 10.0911 15.4669H10.2307C11.5929 15.4669 12.5067 15.3795 12.9724 15.2049C13.438 15.0303 13.7582 14.6577 13.9328 14.0872H19.2764C19.0901 15.8917 18.3741 17.149 17.1285 17.8592C15.8828 18.5693 13.8514 18.9245 11.034 18.9245Z" fill="white"></path><path d="M46.4944 6.52628V18.7501H41.2556V6.52628H46.4944Z" fill="white"></path><path d="M67.5768 6.52628V18.7501H59.6489L53.5543 10.7872H53.3797V18.7501H48.4902V6.52628H56.4182L62.5126 14.5067H62.6873V6.52628H67.5768Z" fill="white"></path><path d="M32.2404 16.2533L30.4731 16.6715C27.3803 17.4034 25.1074 17.5048 23.6541 16.9753C22.2123 16.4433 21.2312 15.0783 20.7111 12.8805L20.5502 12.2007C20.0301 10.003 20.2953 8.34312 21.3457 7.22121C22.4075 6.09661 24.4848 5.16834 27.5775 4.43641L29.3448 4.01817C32.4376 3.28624 34.7049 3.18632 36.1468 3.71841C37.6 4.24781 38.5867 5.61141 39.1069 7.80921L39.2677 8.48893C39.7878 10.6867 39.517 12.3479 38.4552 13.4726C37.4047 14.5944 35.3331 15.5213 32.2404 16.2533ZM30.3906 13.138L30.7304 13.0576C31.4328 12.8913 32.0096 12.7249 32.4606 12.5583C32.909 12.3805 33.2614 12.2014 33.5178 12.021C33.7855 11.838 33.9676 11.6215 34.0639 11.3714C34.1575 11.11 34.1975 10.8493 34.1839 10.5893C34.1815 10.3267 34.1321 9.99143 34.0356 9.58359L33.9431 9.19275C33.8439 8.77358 33.7365 8.44608 33.6209 8.21026C33.5166 7.97175 33.3653 7.76229 33.1671 7.5819C32.9775 7.38749 32.7221 7.2685 32.4007 7.22492C32.0794 7.18134 31.6797 7.18619 31.2018 7.23947C30.7213 7.28142 30.1298 7.38551 29.4274 7.55174L29.0875 7.63216C28.3852 7.79839 27.8097 7.97045 27.3614 8.14834C26.9103 8.31492 26.5509 8.4897 26.2831 8.67269C26.0154 8.85569 25.8347 9.07791 25.7411 9.33933C25.6561 9.58676 25.6148 9.84178 25.617 10.1044C25.6308 10.3644 25.6872 10.7039 25.7863 11.1231L25.8788 11.514C25.9995 12.0237 26.1343 12.4165 26.2833 12.6923C26.4297 12.9568 26.6656 13.1701 26.9911 13.3323C27.3139 13.4832 27.741 13.5437 28.2722 13.5137C28.8121 13.4697 29.5182 13.3444 30.3906 13.138Z" fill="#D8BB31"></path></g></svg>